<?xml version="1.0" encoding="UTF-8" standalone="no"?>
<!-- Created with Inkscape (http://www.inkscape.org/) -->

<svg
   xmlns:dc="http://purl.org/dc/elements/1.1/"
   xmlns:cc="http://creativecommons.org/ns#"
   xmlns:rdf="http://www.w3.org/1999/02/22-rdf-syntax-ns#"
   xmlns:svg="http://www.w3.org/2000/svg"
   xmlns="http://www.w3.org/2000/svg"
   xmlns:sodipodi="http://sodipodi.sourceforge.net/DTD/sodipodi-0.dtd"
   xmlns:inkscape="http://www.inkscape.org/namespaces/inkscape"
   width="100"
   height="100"
   viewBox="0 0 100 100"
   version="1.1"
   id="svg991"
   inkscape:version="0.92.5 (2060ec1f9f, 2020-04-08)"
   sodipodi:docname="portrait2.svg">
  <defs
     id="defs985" />
  <sodipodi:namedview
     id="base"
     pagecolor="#5b6e91"
     bordercolor="#666666"
     borderopacity="1.0"
     inkscape:pageopacity="0"
     inkscape:pageshadow="2"
     inkscape:zoom="5.6568543"
     inkscape:cx="-27.655576"
     inkscape:cy="41.934339"
     inkscape:document-units="px"
     inkscape:current-layer="layer1"
     showgrid="true"
     units="px"
     inkscape:window-width="2488"
     inkscape:window-height="1376"
     inkscape:window-x="1352"
     inkscape:window-y="27"
     inkscape:window-maximized="1">
    <inkscape:grid
       type="xygrid"
       id="grid1585" />
  </sodipodi:namedview>
  <metadata
     id="metadata988">
    <rdf:RDF>
      <cc:Work
         rdf:about="">
        <dc:format>image/svg+xml</dc:format>
        <dc:type
           rdf:resource="http://purl.org/dc/dcmitype/StillImage" />
        <dc:title />
      </cc:Work>
    </rdf:RDF>
  </metadata>
  <g
     inkscape:label="Layer 1"
     inkscape:groupmode="layer"
     id="layer1">
    <g
       id="g4546">
      <rect
         ry="8.9702749"
         y="1.8209532"
         x="1.817813"
         height="96.358109"
         width="96.364372"
         id="frame"
         style="opacity:1;fill:none;fill-opacity:1;stroke:#7a8db1;stroke-width:3.63875175;stroke-linecap:round;stroke-linejoin:round;stroke-miterlimit:4;stroke-dasharray:none;stroke-opacity:1" />
      <g
         style="opacity:0.95999995;fill:#fffff9;fill-opacity:1"
         transform="matrix(6.6014764,0,0,7.0101069,299.22664,-252.60762)"
         id="g954">
        <path
           style="fill:#fffff9;fill-opacity:1;stroke:none;stroke-width:0.30000001;stroke-linecap:butt;stroke-linejoin:miter;stroke-miterlimit:4;stroke-dasharray:none;stroke-opacity:1"
           d="m -41.625,44.09375 c 0,-1.505284 0.04513,-2.215895 0.625,-3.09375 0.440276,-0.666525 1.263374,-1.187233 1.974314,-1.358296 C -37.368943,39.243068 -36,40 -36,40 c 0,0 1.79517,0.847232 2.010844,2.206346 0.28848,1.817919 -0.515693,2.518575 -0.950565,3.091639 -0.354314,0.466907 -1.401107,1.132328 -2.76873,1.683327 C -38.822582,47.430182 -41,48 -41,48 c 0,0 -0.625,-2.08106 -0.625,-3.90625 z"
           id="body"
           inkscape:connector-curvature="0"
           sodipodi:nodetypes="ssscssscs" />
        <path
           style="fill:#fffff9;fill-opacity:1;stroke:none;stroke-width:0.30000001;stroke-linecap:butt;stroke-linejoin:miter;stroke-miterlimit:4;stroke-dasharray:none;stroke-opacity:1"
           d="m -36.347656,39.507812 c 0,0 0.147166,-0.746742 0.285163,-1.067661 0.213194,-0.495794 0.558587,-0.768276 0.558587,-0.768276 0,0 0.520452,-0.445903 1.155328,-0.466272 0.714406,-0.02292 1.098578,0.243616 1.098578,0.243616 0,0 0.765487,0.435182 0.716928,1.184177 -0.04718,0.727715 -0.228461,0.95905 -0.513803,1.30801 -0.404381,0.494541 -1.488281,0.769531 -1.488281,0.769531 0,0 -0.322723,-0.372653 -0.736232,-0.634373 -0.505731,-0.320089 -1.076268,-0.568752 -1.076268,-0.568752 z"
           id="head"
           inkscape:connector-curvature="0"
           sodipodi:nodetypes="cscscsscsc" />
        <path
           style="fill:#fffff9;fill-opacity:1;stroke:none;stroke-width:0.2;stroke-linecap:butt;stroke-linejoin:round;stroke-miterlimit:4;stroke-dasharray:none;stroke-opacity:1"
           d="m -34.265625,40.953125 c 0,0 0.842835,-0.404856 1.516202,-0.388209 0.737991,0.01825 0.876914,-0.02723 1.390048,0.431178 0.71675,0.640304 0.356452,1.864481 0.117188,2.949219 -0.235835,1.069189 -1.132813,3.070312 -1.132813,3.070312 0,0 -0.75491,-3.3593 -1.097209,-4.456919 -0.287909,-0.923215 -0.793416,-1.605581 -0.793416,-1.605581 z"
           id="right-flipper"
           inkscape:connector-curvature="0"
           sodipodi:nodetypes="cssscsc" />
        <path
           style="fill:#fffff9;fill-opacity:1;stroke:none;stroke-width:0.30000001;stroke-linecap:butt;stroke-linejoin:round;stroke-miterlimit:4;stroke-dasharray:none;stroke-opacity:1"
           d="m -36.786518,39.320289 c 0,0 -0.0104,-0.761104 -0.381316,-1.304647 -0.409797,-0.600522 -0.739719,-0.815563 -0.739719,-0.815563 0,0 -0.563501,-0.44696 -1.486123,-0.451827 -1.00541,-0.0053 -1.806572,0.426105 -1.806572,0.426105 0,0 -1.039022,0.604208 -1.535096,0.957093 -0.671389,0.477597 -1.83448,1.565604 -1.83448,1.565604 0,0 4.478829,-0.487527 6.21912,-0.511369 1.096916,-0.01503 1.564186,0.134604 1.564186,0.134604 z"
           id="left-flipper"
           inkscape:connector-curvature="0"
           sodipodi:nodetypes="cscscscsc" />
        <path
           style="fill:#fffff9;fill-opacity:1;stroke:none;stroke-width:0.2;stroke-linecap:butt;stroke-linejoin:miter;stroke-miterlimit:4;stroke-dasharray:none;stroke-opacity:1"
           d="m -39.332816,47.817729 c 0,0 0.834241,-0.223816 1.218216,-0.374395 0.367326,-0.144049 1.046736,-0.476342 1.046736,-0.476342 0,0 0.457181,1.022512 0.375651,1.546796 -0.06095,0.391944 -0.251776,0.865841 -0.618719,1.016466 -0.393325,0.161455 -0.899202,-0.05174 -1.237437,-0.309359 -0.417184,-0.317756 -0.784447,-1.403166 -0.784447,-1.403166 z"
           id="right-leg"
           inkscape:connector-curvature="0"
           sodipodi:nodetypes="cscsssc" />
        <path
           style="fill:#fffff9;fill-opacity:1;stroke:none;stroke-width:0.1;stroke-linecap:butt;stroke-linejoin:miter;stroke-miterlimit:4;stroke-dasharray:none;stroke-opacity:1"
           d="m -41.946652,44.070705 c 0,0 -0.02833,0.77504 -0.0093,1.140463 0.02268,0.43666 0.156439,1.24369 0.156439,1.24369 0,0 -1.072299,0.337646 -1.512944,0.12327 -0.449711,-0.21879 -0.888019,-0.718811 -0.875,-1.21875 0.01215,-0.466736 0.466591,-0.867492 0.875,-1.09375 0.394448,-0.218523 1.365805,-0.194923 1.365805,-0.194923 z"
           id="left-leg"
           inkscape:connector-curvature="0"
           sodipodi:nodetypes="cscsssc" />
      </g>
    </g>
  </g>
</svg>
